<svg width="512" height="512" viewBox="0 0 64 64" xmlns="http://www.w3.org/2000/svg" xmlns:xlink="http://www.w3.org/1999/xlink" overflow="hidden"><g id="data_analysis-finance-arrow-graph-money"><path d="M61 2 31 2C30.4477 2 30 2.44772 30 3L30 16 7 16C4.23858 16 2 18.2386 2 21L2 47C2 49.7614 4.23858 52 7 52L19 52 19 56 18 56C16.3452 56.0049 15.0049 57.3452 15 59L15 61C15 61.5523 15.4477 62 16 62L34 62C34.5523 62 35 61.5523 35 61L35 59C34.9951 57.3452 33.6548 56.0049 32 56L31 56 31 52 43 52C45.7614 52 48 49.7614 48 47L48 28 61 28C61.5523 28 62 27.5523 62 27L62 3C62 2.44772 61.5523 2 61 2ZM32 58C32.5523 58 33 58.4477 33 59L33 60 17 60 17 59C17 58.4477 17.4477 58 18 58ZM21 56 21 52 29 52 29 56ZM46 47C45.9951 48.6548 44.6548 49.9951 43 50L7 50C5.3452 49.9951 4.00494 48.6548 4 47L4 46 46 46ZM46 44 4 44 4 21C4.00494 19.3452 5.3452 18.0049 7 18L30 18 30 27C30 27.5523 30.4477 28 31 28L46 28ZM60 26 32 26 32 4 60 4Z" fill="#FFFFFF"/><path d="M17 20C10.9249 20 6 24.9249 6 31 6 37.0751 10.9249 42 17 42 23.0751 42 28 37.0751 28 31 27.9928 24.9278 23.0722 20.0072 17 20ZM17 40C12.0294 40 8 35.9706 8 31 8 26.0294 12.0294 22 17 22 21.9706 22 26 26.0294 26 31 25.9945 35.9683 21.9683 39.9945 17 40Z" fill="#FFFFFF"/><path d="M17 28C17.5523 28 18 28.4477 18 29L20 29C19.9947 27.7332 19.1944 26.6063 18 26.184L18 25 16 25 16 26.184C14.4409 26.7332 13.6222 28.4422 14.1713 30.0013 14.5938 31.2009 15.7282 32.0024 17 32 17.5523 32 18 32.4477 18 33 18 33.5523 17.5523 34 17 34 16.4477 34 16 33.5523 16 33L14 33C14.0053 34.2668 14.8056 35.3937 16 35.816L16 37 18 37 18 35.816C19.5591 35.2668 20.3778 33.5578 19.8287 31.9987 19.4062 30.7991 18.2718 29.9976 17 30 16.4477 30 16 29.5523 16 29 16 28.4477 16.4477 28 17 28Z" fill="#FFFFFF"/><path d="M61.77 36.36 56.77 30.36C56.3905 29.9347 55.7381 29.8976 55.3129 30.2771 55.2837 30.3032 55.256 30.3308 55.23 30.36L50.23 36.36C49.8765 36.7844 49.934 37.4149 50.3584 37.7684 50.5385 37.9184 50.7656 38.0004 51 38L53 38 53 61C53 61.5523 53.4477 62 54 62L58 62C58.5523 62 59 61.5523 59 61L59 38 61 38C61.5523 38.0009 62.0007 37.5539 62.0016 37.0016 62.002 36.7672 61.92 36.5401 61.77 36.36ZM58 36C57.4477 36 57 36.4477 57 37L57 60 55 60 55 37C55 36.4477 54.5523 36 54 36L53.13 36 56 32.56 58.87 36Z" fill="#FFFFFF"/><path d="M27.64 7.23 21.64 2.23C21.2156 1.87654 20.5851 1.93401 20.2316 2.35837 20.0816 2.53849 19.9996 2.76559 20 3L20 5 3 5C2.44772 5 2 5.44772 2 6L2 10C2 10.5523 2.44772 11 3 11L20 11 20 13C19.999 13.3906 20.2255 13.746 20.58 13.91 20.7121 13.9694 20.8552 14.0001 21 14 21.2337 14.0005 21.4601 13.9191 21.64 13.77L27.64 8.77C28.0653 8.41762 28.1243 7.78722 27.772 7.36196 27.7322 7.31395 27.688 7.26978 27.64 7.23ZM22 10.86 22 10C22 9.44771 21.5523 9 21 9L4 9 4 7 21 7C21.5523 7 22 6.55228 22 6L22 5.14 25.44 8Z" fill="#FFFFFF"/><path d="M36 24 40 24C40.5523 24 41 23.5523 41 23L41 15C41 14.4477 40.5523 14 40 14L36 14C35.4477 14 35 14.4477 35 15L35 23C35 23.5523 35.4477 24 36 24ZM37 16 39 16 39 22 37 22Z" fill="#FFFFFF"/><path d="M44 24 48 24C48.5523 24 49 23.5523 49 23L49 11C49 10.4477 48.5523 10 48 10L44 10C43.4477 10 43 10.4477 43 11L43 23C43 23.5523 43.4477 24 44 24ZM45 12 47 12 47 22 45 22Z" fill="#FFFFFF"/><path d="M52 24 56 24C56.5523 24 57 23.5523 57 23L57 7C57 6.44772 56.5523 6 56 6L52 6C51.4477 6 51 6.44772 51 7L51 23C51 23.5523 51.4477 24 52 24ZM53 8 55 8 55 22 53 22Z" fill="#FFFFFF"/><path d="M30 30 34 30 34 32 30 32Z" fill="#FFFFFF"/><path d="M36 30 42 30 42 32 36 32Z" fill="#FFFFFF"/><path d="M30 34 34 34 34 36 30 36Z" fill="#FFFFFF"/><path d="M36 34 42 34 42 36 36 36Z" fill="#FFFFFF"/><path d="M30 38 34 38 34 40 30 40Z" fill="#FFFFFF"/><path d="M36 38 42 38 42 40 36 40Z" fill="#FFFFFF"/></g></svg>