<svg width="512" height="512" viewBox="0 0 64 64" xmlns="http://www.w3.org/2000/svg" xmlns:xlink="http://www.w3.org/1999/xlink" id="Layer_1_1_" overflow="hidden"><path d="M61 2 3 2C2.44775 2 2 2.44727 2 3L2 9C2 9.55273 2.44775 10 3 10L5 10 5 52 3 52C2.44775 52 2 52.4473 2 53L2 57C2 57.5527 2.44775 58 3 58L27 58 27 59C27 60.6543 28.3457 62 30 62L34 62C35.6543 62 37 60.6543 37 59L37 58 61 58C61.5522 58 62 57.5527 62 57L62 53C62 52.4473 61.5522 52 61 52L59 52 59 10 61 10C61.5522 10 62 9.55273 62 9L62 3C62 2.44727 61.5522 2 61 2ZM35 59C35 59.5518 34.5513 60 34 60L30 60C29.4487 60 29 59.5518 29 59L29 58 35 58ZM60 56 4 56 4 54 6 54 58 54 60 54ZM57 52 7 52 7 10 57 10ZM60 8 58 8 6 8 4 8 4 4 60 4Z" fill="#FFFFFF"/><path d="M49 39C49 39.3907 49.0803 39.7618 49.2168 40.1044L45.4603 43.3957C45.0262 43.1512 44.5328 43 44 43 43.3859 43 42.8153 43.1867 42.3394 43.5045L38.8505 40.8881C38.9389 40.6057 39 40.3112 39 40 39 38.3457 37.6543 37 36 37 34.3457 37 33 38.3457 33 40 33 40.3907 33.0803 40.7618 33.2168 41.1044L29.4603 44.3957C29.0263 44.1512 28.5328 44 28 44 26.6981 44 25.5984 44.8385 25.1843 46L17 46 17 48 25.1843 48C25.5984 49.1615 26.6981 50 28 50 29.6543 50 31 48.6543 31 47 31 46.6093 30.9197 46.2382 30.7833 45.8956L34.5397 42.6043C34.9738 42.8488 35.4672 43 36 43 36.6141 43 37.1847 42.8133 37.6606 42.4955L41.1495 45.1119C41.0611 45.3943 41 45.6888 41 46 41 47.6543 42.3457 49 44 49 45.6543 49 47 47.6543 47 46 47 45.6093 46.9197 45.2382 46.7833 44.8956L50.5397 41.6043C50.9738 41.8488 51.4672 42 52 42 53.6543 42 55 40.6543 55 39 55 37.3457 53.6543 36 52 36 50.3457 36 49 37.3457 49 39ZM28 48C27.4487 48 27 47.5518 27 47 27 46.4482 27.4487 46 28 46 28.5513 46 29 46.4482 29 47 29 47.5518 28.5513 48 28 48ZM36 41C35.4487 41 35 40.5518 35 40 35 39.4482 35.4487 39 36 39 36.5513 39 37 39.4482 37 40 37 40.5518 36.5513 41 36 41ZM44 47C43.4487 47 43 46.5518 43 46 43 45.4482 43.4487 45 44 45 44.5513 45 45 45.4482 45 46 45 46.5518 44.5513 47 44 47ZM53 39C53 39.5518 52.5513 40 52 40 51.4487 40 51 39.5518 51 39 51 38.4482 51.4487 38 52 38 52.5513 38 53 38.4482 53 39Z" fill="#FFFFFF"/><path d="M20 30C23.8599 30 27 26.8594 27 23 27 19.1406 23.8599 16 20 16 16.1401 16 13 19.1406 13 23 13 26.8594 16.1401 30 20 30ZM21 18.1011C21.6371 18.2309 22.2285 18.4854 22.7529 18.833L21 20.5859ZM19 18.1011 19 23C19 23.4043 19.2437 23.7695 19.6172 23.9238 19.7412 23.9756 19.8711 24 20 24 20.2603 24 20.5156 23.8984 20.707 23.707L24.167 20.2471C24.691 21.0376 25 21.9827 25 23 25 25.7568 22.7568 28 20 28 17.2432 28 15 25.7568 15 23 15 20.5856 16.7207 18.5657 19 18.1011Z" fill="#FFFFFF"/><path d="M20 34C26.0654 34 31 29.0654 31 23 31 16.9346 26.0654 12 20 12L20 14C24.9624 14 29 18.0371 29 23 29 27.9629 24.9624 32 20 32 15.0376 32 11 27.9629 11 23L9 23C9 29.0654 13.9346 34 20 34Z" fill="#FFFFFF"/><path d="M39 32 43 32 47 32 51 32 54 32 54 30 52 30 52 14C52 13.4473 51.5522 13 51 13L47 13C46.4478 13 46 13.4473 46 14L46 21 44 21 44 19C44 18.4473 43.5522 18 43 18L39 18C38.4478 18 38 18.4473 38 19L38 24 35 24C34.4478 24 34 24.4473 34 25L34 30 32 30 32 32 35 32ZM48 15 50 15 50 30 48 30 48 22ZM46 23 46 30 44 30 44 23ZM40 20 42 20 42 22 42 30 40 30 40 25ZM36 26 38 26 38 30 36 30Z" fill="#FFFFFF"/><path d="M13 46 15 46 15 48 13 48Z" fill="#FFFFFF"/><path d="M9 46 11 46 11 48 9 48Z" fill="#FFFFFF"/></svg>