<svg viewBox="0 0 512 512" xmlns="http://www.w3.org/2000/svg" xmlns:xlink="http://www.w3.org/1999/xlink" id="Capa_1" overflow="hidden"><g><g><path d="M512 270.529C512 240.858 496.444 213.467 471.601 198.088 477.087 186.656 479.952 174.123 479.952 161.308 479.952 124.438 434.426 94.561 404.616 78.955 401.433 34.883 364.575 0 319.726 0 294.36 0 271.156 10.245 255.292 27.94 239.288 10.247 216.578 0 192.274 0 162.769 0 134.851 15.827 119.532 41.018 112.46 52.648 108.239 65.944 107.35 79.527 107.345 79.606 107.334 79.684 107.329 79.763 105.532 80.678 103.353 81.824 100.692 83.261 94.001 86.873 83.895 92.721 73.75 100.067 46.079 120.102 32.048 140.706 32.048 161.308 32.048 174.123 34.912 186.656 40.398 198.088 15.556 213.467 0 240.858 0 270.529 0 299.203 14.233 325.521 37.699 341.241 33.986 350.941 32.048 361.326 32.048 371.735 32.048 402.499 48.298 430.375 74.763 445.566 85.886 484.333 130.161 512 182.259 512 209.214 512 235.601 504.089 255.944 490.139 276.161 504.27 302.037 512 329.741 512 381.839 512 426.115 484.333 437.237 445.566 463.703 430.376 479.952 402.499 479.952 371.735 479.952 361.327 478.014 350.942 474.301 341.241 497.767 325.521 512 299.204 512 270.529ZM182.259 492C138.208 492 99.906 468.254 93.166 436.764 92.533 433.806 90.594 431.293 87.894 429.93 71.735 421.774 60.058 407.664 54.938 391.006 63.296 395.171 72.3 397.29 81.691 397.29L81.721 397.29C95.327 397.29 109.292 392.304 119.788 383.672 123.92 380.274 124.533 373.687 121.173 369.592 117.797 365.478 111.197 364.85 107.1 368.209 99.85 374.149 91.07 377.289 81.7 377.289 70.487 377.289 60.016 372.686 52.441 364.568 53.304 356.623 55.608 348.99 59.335 341.799 61.872 336.904 59.968 330.88 55.08 328.331 33.441 317.049 20 294.9 20 270.529 20 245.041 35.004 221.751 58.224 211.196 60.872 209.992 62.866 207.695 63.683 204.903 64.5 202.111 64.061 199.101 62.481 196.659 55.656 186.115 52.048 173.89 52.048 161.308 52.048 137.6 86.067 113.936 108.777 101.543 112.887 122.337 124.686 141.196 142.061 153.915 146.285 157.007 152.873 156.075 156.038 151.753 159.3 147.296 158.332 141.039 153.875 137.777 128.652 119.313 120.035 83.943 134.05 56.014 144.997 34.195 167.848 20 192.274 20 213.497 20 233.139 30.219 245.374 47.477L245.375 48.486C245.335 55.079 245.317 69.708 245.339 102.77L189.709 102.77C185.665 102.77 182.019 105.206 180.471 108.942 178.923 112.678 179.778 116.979 182.636 119.839 198.265 135.476 198.265 160.918 182.637 176.555 167.476 191.725 141.081 191.679 125.965 176.555 122.061 172.649 115.73 172.647 111.823 176.552 107.917 180.456 107.915 186.788 111.82 190.694 113.364 192.239 114.984 193.681 116.659 195.034L91.34 221.036C77.73 234.705 77.746 256.903 91.388 270.552 104.764 283.936 127.628 283.876 140.944 270.553 144.848 266.646 144.846 260.315 140.94 256.411 137.032 252.507 130.703 252.508 126.799 256.413 121.292 261.922 111.226 262.109 105.535 256.415 99.669 250.546 99.669 240.996 105.535 235.126 105.565 235.095 105.596 235.064 105.626 235.033 105.626 235.033 134.804 205.068 134.807 205.064 135.147 204.715 145.268 207.636 146.54 207.801 164.935 210.181 183.682 203.801 196.782 190.694 215.109 172.357 219.094 145.021 208.738 122.77L245.356 122.77C245.379 148.346 245.42 182.181 245.483 226.963L221 226.963 221 224.436C221 218.913 216.523 214.436 211 214.436 205.477 214.436 201 218.913 201 224.436L201 249.487C201 255.01 205.477 259.487 211 259.487 216.523 259.487 221 255.01 221 249.487L221 246.964 245.511 246.964C245.518 251.693 245.584 296.22 245.611 313.139L217.621 313.139C215.929 308.473 213.224 304.096 209.49 300.36 202.872 293.738 194.073 290.092 184.713 290.092 175.353 290.092 166.553 293.738 159.935 300.36 156.031 304.267 156.033 310.598 159.939 314.503 163.846 318.406 170.176 318.405 174.081 314.5 187.36 301.22 209.125 322.001 195.344 335.788 191.44 339.694 191.441 346.026 195.347 349.93 199.114 353.695 205.624 353.794 209.489 349.927 214.275 345.138 217.378 339.296 218.809 333.14L245.643 333.14C245.682 356.173 245.721 377.977 245.76 397.338L167.304 397.338C164.651 397.338 162.107 398.392 160.231 400.269 146.573 413.934 146.573 436.168 160.23 449.834 173.502 463.115 196.587 463.041 209.785 449.835 213.689 445.928 213.688 439.597 209.782 435.693 205.875 431.789 199.546 431.79 195.642 435.694 190.019 441.318 179.965 441.287 174.377 435.696 169.41 430.726 168.648 423.117 172.094 417.338L245.802 417.338C245.839 434.416 245.941 469.587 245.957 472.759 228.765 485.031 205.842 492 182.259 492ZM456.921 328.332C452.033 330.881 450.129 336.905 452.666 341.8 457.5 351.129 459.952 361.201 459.952 371.736 459.952 396.472 446.217 418.771 424.107 429.931 421.406 431.294 419.468 433.807 418.835 436.765 412.094 468.254 373.792 492 329.741 492 305.844 492 282.901 485.034 265.993 472.77L265.912 417.337 302.057 417.337C305.695 432.808 319.598 444.363 336.157 444.363 355.477 444.363 371.195 428.639 371.195 409.312 371.195 389.985 355.477 374.261 336.157 374.261 321.04 374.261 308.129 383.889 303.227 397.337L265.883 397.337 265.79 333.139 358.665 333.139C362.979 347.608 376.395 358.19 392.242 358.19 411.562 358.19 427.28 342.466 427.28 323.139 427.28 303.812 411.562 288.088 392.242 288.088 376.395 288.088 362.979 298.67 358.665 313.139L265.76 313.139 265.664 246.964 287.557 246.964C291.871 261.433 305.287 272.015 321.134 272.015 340.454 272.015 356.172 256.291 356.172 236.964 356.172 217.637 340.454 201.913 321.134 201.913 305.287 201.913 291.871 212.495 287.557 226.964L265.635 226.964 265.483 122.771 294.692 122.771C299.141 137.019 312.455 147.39 328.145 147.39 347.465 147.39 363.183 131.666 363.183 112.339 363.183 93.012 347.465 77.288 328.145 77.288 312.141 77.288 298.619 88.081 294.445 102.771L265.454 102.771 265.373 47.389C277.242 30.185 297.346 20 319.726 20 355.629 20 384.839 49.228 384.839 85.153 384.839 91.325 389.697 93.786 391.771 94.837 434.463 116.462 459.951 141.311 459.952 161.308 459.953 186.21 443.639 215.52 416.34 216.401 413.67 216.481 411.19 217.601 409.36 219.551 407.53 221.491 406.57 224.041 406.66 226.711 406.74 229.321 407.82 231.761 409.7 233.581 411.57 235.401 414.04 236.401 416.65 236.401L416.68 236.401C416.77 236.401 416.869 236.401 416.959 236.391 433.676 234.507 449.92 228.197 460.996 215.058 480.055 226.816 492 247.794 492 270.529 492 294.9 478.559 317.049 456.921 328.332ZM321.119 409.312C321.119 401.013 327.865 394.261 336.157 394.261 344.449 394.261 351.195 401.013 351.195 409.312 351.195 417.611 344.449 424.363 336.157 424.363 327.865 424.363 321.119 417.611 321.119 409.312ZM377.204 323.138C377.204 314.839 383.95 308.087 392.242 308.087 400.534 308.087 407.28 314.839 407.28 323.138 407.28 331.437 400.534 338.189 392.242 338.189 383.95 338.189 377.204 331.438 377.204 323.138ZM306.097 236.963C306.097 228.664 312.843 221.912 321.135 221.912 329.427 221.912 336.173 228.664 336.173 236.963 336.173 245.262 329.427 252.014 321.135 252.014 312.843 252.014 306.097 245.262 306.097 236.963ZM313.107 112.338C313.107 104.039 319.853 97.287 328.145 97.287 336.437 97.287 343.183 104.039 343.183 112.338 343.183 120.637 336.437 127.389 328.145 127.389 319.853 127.389 313.107 120.637 313.107 112.338Z" fill="#FFFFFF"/></g></g><g><g><path d="M132.44 331.53C129.66 331.29 126.9 332.23 124.84 334.11 122.98 335.81 121.84 338.13 121.63 340.64 121.4 343.31 122.22 345.9 123.95 347.94 125.67 349.98 128.08 351.23 130.74 351.46 131.03 351.48 131.31 351.49 131.6 351.49 134.1 351.49 136.49 350.56 138.34 348.87 140.2 347.17 141.34 344.85 141.56 342.34 141.56 342.33 141.56 342.33 141.55 342.33 142.01 336.84 137.93 331.99 132.44 331.53Z" fill="#FFFFFF"/></g></g><g><g><path d="M387.28 205.19C387.28 205.19 387.28 205.19 387.27 205.18 385.4 203.37 382.93 202.38 380.33 202.38 377.59 202.38 375.03 203.46 373.13 205.43 371.28 207.35 370.28 209.88 370.33 212.55 370.37 215.22 371.45 217.71 373.37 219.56 373.37 219.56 373.37 219.57 373.38 219.57 375.25 221.38 377.72 222.38 380.32 222.38 383.06 222.38 385.62 221.29 387.52 219.32 391.34 215.36 391.24 209.03 387.28 205.19Z" fill="#FFFFFF"/></g></g><g></g><g></g><g></g><g></g><g></g><g></g><g></g><g></g><g></g><g></g><g></g><g></g><g></g><g></g><g></g></svg>