<svg width="512" height="512" viewBox="0 0 64 64" xmlns="http://www.w3.org/2000/svg" xmlns:xlink="http://www.w3.org/1999/xlink" id="Layer_1_1_" overflow="hidden"><path d="M32 33C30.346 33 29 34.346 29 36 29 37.654 30.346 39 32 39 33.654 39 35 37.654 35 36 35 34.346 33.654 33 32 33ZM32 37C31.449 37 31 36.552 31 36 31 35.448 31.449 35 32 35 32.551 35 33 35.448 33 36 33 36.552 32.551 37 32 37Z" fill="#FFFFFF"/><path d="M15 33 15 49C15 53.411 18.589 57 23 57L31 57 31 60 24 60 24 62 40 62 40 60 33 60 33 57 41 57C45.411 57 49 53.411 49 49L49 33 47 33 47 35 45 35 45 20C45 17.243 42.757 15 40 15L24 15C21.243 15 19 17.243 19 20L19 35 17 35 17 33ZM39 49 39 51 37 51 37 49 35 49 35 51 33 51 33 49 31 49 31 51 29 51 29 49 27 49 27 51 25 51 25 49 23 49 23 50.816C21.839 50.402 21 49.302 21 48L21 47 43 47 43 48C43 49.302 42.161 50.402 41 50.816L41 49ZM43 41 39 41 39 43 43 43 43 45 21 45 21 43 25 43 25 41 21 41 21 39 27 39 27 37 21 37 21 35 27 35 27 33 21 33 21 31 43 31 43 33 37 33 37 35 43 35 43 37 37 37 37 39 43 39ZM43 29 21 29 21 27 43 27ZM23 17.184 23 23 25 23 25 17 27 17 27 23 29 23 29 17 31 17 31 23 33 23 33 17 35 17 35 23 37 23 37 17 39 17 39 23 41 23 41 17.184C42.161 17.598 43 18.698 43 20L43 25 21 25 21 20C21 18.698 21.839 17.598 23 17.184ZM19 37 19 48C19 50.757 21.243 53 24 53L40 53C42.757 53 45 50.757 45 48L45 37 47 37 47 49C47 52.309 44.309 55 41 55L23 55C19.691 55 17 52.309 17 49L17 37Z" fill="#FFFFFF"/><path d="M57.311 6.649C56.546 8.688 55.679 11 54.496 11 53.312 11 52.445 8.688 51.68 6.648 50.637 3.871 49.56 1 46.991 1 44.423 1 43.346 3.872 42.305 6.648 41.541 8.688 40.674 11 39.492 11 38.31 11 37.443 8.688 36.678 6.649 35.636 3.872 34.559 1 31.99 1 29.422 1 28.345 3.872 27.304 6.648 26.54 8.688 25.673 11 24.491 11 23.31 11 22.443 8.688 21.679 6.649 20.638 3.872 19.562 1 16.994 1 14.426 1 13.35 3.872 12.309 6.649 11.545 8.688 10.678 11 9.497 11 8.316 11 7.449 8.688 6.685 6.649 5.644 3.872 4.567 1 2 1L2 3C3.181 3 4.048 5.312 4.812 7.351 5.853 10.128 6.93 13 9.497 13 12.064 13 13.141 10.128 14.182 7.351 14.946 5.312 15.813 3 16.994 3 18.175 3 19.042 5.312 19.806 7.351 20.847 10.128 21.924 13 24.491 13 27.059 13 28.136 10.128 29.177 7.352 29.942 5.312 30.809 3 31.99 3 33.173 3 34.04 5.312 34.804 7.352 35.847 10.129 36.923 13 39.492 13 42.06 13 43.137 10.128 44.179 7.351 44.943 5.312 45.81 3 46.991 3 48.174 3 49.041 5.312 49.806 7.351 50.849 10.128 51.926 13 54.496 13 57.065 13 58.142 10.129 59.184 7.352 59.949 5.312 60.816 3 62 3L62 1C59.431 1 58.354 3.872 57.311 6.649Z" fill="#FFFFFF"/><path d="M31 41 33 41 33 43 31 43Z" fill="#FFFFFF"/><path d="M27 41 29 41 29 43 27 43Z" fill="#FFFFFF"/><path d="M35 41 37 41 37 43 35 43Z" fill="#FFFFFF"/></svg>