<svg width="512" height="512" viewBox="0 0 512 512" xmlns="http://www.w3.org/2000/svg" xmlns:xlink="http://www.w3.org/1999/xlink" id="Capa_1" overflow="hidden"><g><path d="M339.55 53.447C342.05 53.447 344.554 52.514 346.495 50.641 350.468 46.804 350.579 40.475 346.743 36.501L346.716 36.473C342.88 32.502 336.563 32.402 332.589 36.24 328.616 40.076 328.519 46.42 332.355 50.393 334.317 52.426 336.932 53.447 339.55 53.447Z" fill="#FFFFFF"/><path d="M495.276 329.583 412.673 271.137C409.62 268.979 405.621 268.703 402.301 270.418 398.982 272.136 396.897 275.561 396.897 279.299L396.897 302.718 290.931 302.718 290.931 258.858C312.641 252.888 332.542 241.341 348.893 224.935 387.764 185.934 398.304 126.151 375.12 76.171 372.796 71.162 366.854 68.984 361.841 71.308 356.831 73.631 354.653 79.576 356.978 84.587 376.224 126.078 368.069 175.519 336.825 208.63 331.808 188.592 319.47 170.94 302.18 159.341 309.58 149.576 313.983 137.41 313.983 124.228 313.983 92.176 287.966 66.1 255.987 66.1 224.023 66.1 198.018 92.177 198.018 124.228 198.018 137.407 202.417 149.571 209.81 159.334 192.514 170.937 180.171 188.591 175.151 208.628 133.837 164.907 134.544 95.616 177.274 52.744 208.77 21.144 255.862 11.413 297.249 27.958 302.371 30.009 308.195 27.514 310.246 22.385 312.297 17.257 309.802 11.438 304.673 9.389 255.839-10.133 200.27 1.342 163.109 38.627 111.899 90.007 111.9 173.586 163.109 224.934 167.255 229.094 171.634 232.934 176.208 236.457 176.464 236.673 176.731 236.878 177.008 237.069 190.266 247.122 205.168 254.48 221.043 258.849L221.043 302.716 115.103 302.716 115.103 279.3C115.103 275.562 113.018 272.136 109.699 270.419 106.38 268.701 102.38 268.979 99.327 271.138L16.724 329.584C14.076 331.458 12.5 334.501 12.5 337.746 12.5 340.991 14.073 344.034 16.722 345.909L99.325 404.383C102.377 406.543 106.378 406.821 109.698 405.103 113.018 403.385 115.103 399.96 115.103 396.222L115.103 372.775 221.041 372.775 221.041 409.124 197.734 409.124C194.002 409.124 190.581 411.202 188.86 414.514 187.139 417.825 187.407 421.819 189.552 424.873L247.804 507.752C249.676 510.416 252.729 512.002 255.985 512.002L255.986 512.002C259.242 512.002 262.294 510.417 264.167 507.754L322.446 424.875C324.592 421.821 324.86 417.828 323.14 414.515 321.419 411.203 317.997 409.124 314.265 409.124L290.93 409.124 290.93 372.775 396.897 372.775 396.897 396.222C396.897 399.96 398.982 403.386 402.302 405.103 405.623 406.822 409.623 406.543 412.675 404.383L495.278 345.909C497.926 344.034 499.5 340.991 499.5 337.746 499.5 334.501 497.925 331.457 495.276 329.583ZM255.986 86.099C276.937 86.099 293.982 103.203 293.982 124.229 293.982 145.269 276.937 162.386 255.986 162.386 235.049 162.386 218.017 145.269 218.017 124.229 218.018 103.204 235.05 86.099 255.986 86.099ZM192.849 223.859C194.509 202.792 206.651 183.807 225.079 173.393 234.033 179.078 244.629 182.385 255.986 182.385 267.347 182.385 277.946 179.08 286.903 173.396 305.331 183.805 317.472 202.797 319.125 223.877 300.695 236.662 278.874 243.549 256 243.549 233.116 243.549 211.286 236.656 192.849 223.859ZM416.897 376.889 416.897 362.774C416.897 357.252 412.419 352.775 406.897 352.775L280.931 352.775C275.409 352.775 270.931 357.252 270.931 362.774L270.931 419.122C270.931 424.644 275.409 429.121 280.931 429.121L295.01 429.121 255.989 484.613 216.986 429.121 231.042 429.121C236.564 429.121 241.042 424.644 241.042 419.122L241.042 362.774C241.042 357.252 236.564 352.775 231.042 352.775L105.103 352.775C99.581 352.775 95.103 357.252 95.103 362.774L95.103 376.889 39.81 337.748 95.103 298.625 95.103 312.718C95.103 318.24 99.581 322.717 105.103 322.717L231.041 322.717C236.563 322.717 241.041 318.24 241.041 312.718L241.041 262.698C245.973 263.256 250.964 263.548 256 263.548 261.027 263.548 266.008 263.257 270.931 262.702L270.931 312.718C270.931 318.24 275.409 322.717 280.931 322.717L406.898 322.717C412.42 322.717 416.898 318.24 416.898 312.718L416.898 298.625 472.191 337.748Z" fill="#FFFFFF"/></g></svg>