<svg viewBox="0 -1 511.999 511" xmlns="http://www.w3.org/2000/svg" xmlns:xlink="http://www.w3.org/1999/xlink" overflow="hidden"><path d="M380.59 204.039 410.672 202.133C410.723 202.129 410.777 202.125 410.832 202.121 432.27 200.313 451.512 189.082 463.629 171.301L487.41 136.41C508.109 106.035 516.129 69.3477 509.984 33.1094 508.777 25.9922 505.137 19.4336 499.738 14.6484 494.336 9.85938 487.391 7.03125 480.18 6.6875 443.453 4.92969 408.004 17.293 380.332 41.4844L348.543 69.2773C332.344 83.4375 323.5 103.887 324.273 125.391 324.277 125.441 324.277 125.496 324.281 125.551L325.996 155.641C326.664 167.371 322.363 178.945 314.219 187.375L65.8672 442.508C59.2188 449.441 55.7852 458.953 56.2031 469.293 56.6641 480.676 61.8867 491.855 70.1758 499.203 77.6641 505.84 87.957 509.621 98.2461 509.621 99.3477 509.621 100.449 509.578 101.547 509.488 111.863 508.664 120.898 504.117 127.016 496.641L350.48 219.555C357.891 210.438 368.867 204.781 380.59 204.039ZM338.551 209.898 115.105 486.961C111.691 491.133 106.441 493.703 100.324 494.191 93.0469 494.773 85.5859 492.352 80.3594 487.719 75.1328 483.082 71.8359 475.965 71.543 468.672 71.293 462.543 73.2109 457.023 76.9063 453.172L325.238 198.059C336.371 186.539 342.23 170.762 341.324 154.77L339.609 124.758C339.027 107.926 345.961 91.9219 358.645 80.832L390.434 53.0391C415.105 31.4727 446.723 20.4609 479.449 22.0156 483.176 22.1953 486.762 23.6563 489.555 26.1328 492.348 28.6055 494.227 31.9961 494.852 35.6719 500.328 67.9805 493.18 100.684 474.727 127.762L450.945 162.656C441.457 176.578 426.398 185.379 409.617 186.82L379.617 188.719C363.633 189.734 348.672 197.445 338.551 209.898Z" fill="#FFFFFF"/><path d="M497.82 440.57 331.301 288.902C328.168 286.047 323.316 286.273 320.457 289.406 317.605 292.539 317.832 297.395 320.965 300.25L487.441 451.883C491.402 455.543 493.648 460.938 493.77 467.07 493.914 474.367 491.051 481.668 486.109 486.609 481.172 491.547 473.883 494.418 466.57 494.27 460.438 494.148 455.043 491.902 451.422 487.984L303.039 325.078C300.184 321.941 295.328 321.719 292.195 324.57 289.063 327.426 288.836 332.281 291.691 335.414L440.109 498.359C446.633 505.414 455.922 509.414 466.27 509.617 466.539 509.621 466.805 509.625 467.074 509.625 478.195 509.625 489.316 505.113 496.961 497.465 504.797 489.629 509.34 478.156 509.113 466.77 508.91 456.422 504.914 447.133 497.82 440.57Z" fill="#FFFFFF"/><path d="M92.6094 202.586C105.313 214.289 121.816 220.961 139.082 221.375 139.137 221.379 139.191 221.379 139.242 221.379L169.383 221.473C181.133 221.508 192.426 226.496 200.352 235.133L213.629 249.707C215.145 251.371 217.219 252.215 219.305 252.215 221.148 252.215 223 251.555 224.469 250.215 227.605 247.359 227.832 242.504 224.977 239.371L211.68 224.777C200.852 212.973 185.453 206.176 169.434 206.121L139.375 206.027C126.02 205.688 113.25 200.574 103.355 191.617L16.0078 87.7813C15.1172 86.7188 15.1836 85.1797 16.1641 84.1992 16.8359 83.5234 17.625 83.4258 18.0352 83.4258 18.4453 83.4258 19.2344 83.5234 19.9102 84.1992L99.418 163.711C107.277 171.57 120.066 171.57 127.926 163.707L137.27 154.367 137.27 154.363 153.859 137.773C153.859 137.773 153.863 137.773 153.863 137.77 153.863 137.77 153.867 137.766 153.867 137.766L163.207 128.426C171.066 120.566 171.066 107.777 163.207 99.918L83.6992 20.4102C82.668 19.3789 82.668 17.6953 83.6992 16.6641 84.6797 15.6836 86.2188 15.6172 87.2813 16.5078L191.117 103.859C200.078 113.75 205.191 126.523 205.531 139.875L205.621 169.938C205.676 185.953 212.477 201.352 224.297 212.203L238.523 225.16C241.66 228.016 246.512 227.789 249.367 224.656 252.219 221.52 251.992 216.668 248.859 213.813L234.656 200.875C225.996 192.93 221.012 181.633 220.973 169.887L220.879 139.746C220.879 139.691 220.879 139.637 220.875 139.582 220.461 122.316 213.789 105.813 202.086 93.1094 201.867 92.8711 201.633 92.6445 201.383 92.4336L97.1602 4.76172C89.957-1.30078 79.5039-0.847656 72.8477 5.80859 65.8281 12.8281 65.8281 24.2461 72.8477 31.2617L152.355 110.773C154.23 112.648 154.23 115.699 152.355 117.574L148.438 121.488 59.8242 32.8789C56.8281 29.8789 51.9688 29.8789 48.9727 32.8789 45.9766 35.875 45.9766 40.7344 48.9727 43.7305L137.586 132.344 131.844 138.082 43.2305 49.4727C40.2344 46.4766 35.375 46.4766 32.3789 49.4727 29.3789 52.4688 29.3789 57.3281 32.3789 60.3242L120.988 148.938 117.074 152.855C115.199 154.73 112.148 154.73 110.273 152.855L30.7617 73.3477C27.3633 69.9492 22.8438 68.0742 18.0352 68.0742 13.2266 68.0742 8.70703 69.9492 5.30859 73.3477-1.34766 80.0039-1.79688 90.457 4.26172 97.6641L91.9375 201.883C92.1445 202.133 92.3711 202.367 92.6094 202.586Z" fill="#FFFFFF"/></svg>